<svg viewBox="0 0 24 24" xmlns="http://www.w3.org/2000/svg">
  <defs>
    <linearGradient id="aiGrad" x1="0%" y1="0%" x2="100%" y2="100%">
      <stop offset="0%" style="stop-color:#35d0c3;stop-opacity:1" />
      <stop offset="100%" style="stop-color:#8b93d4;stop-opacity:1" />
    </linearGradient>
  </defs>
  
  <!-- Background -->
  <rect width="24" height="24" rx="4" fill="#ffffff"/>
  
  <!-- Open book - Left page -->
  <path 
    d="M2 3h6a4 4 0 0 1 4 4v14a3 3 0 0 0-3-3H2z" 
    fill="none"
    stroke="url(#aiGrad)"
    stroke-width="1.5"
    stroke-linecap="round"
    stroke-linejoin="round"
  />
  
  <!-- Open book - Right page -->
  <path 
    d="M22 3h-6a4 4 0 0 0-4 4v14a3 3 0 0 1 3-3h7z" 
    fill="none"
    stroke="url(#aiGrad)"
    stroke-width="1.5"
    stroke-linecap="round"
    stroke-linejoin="round"
  />
  
  <!-- AI Circuit nodes - Left -->
  <circle cx="6" cy="9" r="1.5" fill="url(#aiGrad)" />
  <circle cx="9" cy="12" r="1.2" fill="url(#aiGrad)" />
  <line x1="6.8" y1="10" x2="8.2" y2="11.2" stroke="url(#aiGrad)" stroke-width="1" />
  
  <!-- AI Circuit nodes - Right -->
  <circle cx="18" cy="9" r="1.5" fill="url(#aiGrad)" />
  <circle cx="15" cy="12" r="1.2" fill="url(#aiGrad)" />
  <line x1="17.2" y1="10" x2="15.8" y2="11.2" stroke="url(#aiGrad)" stroke-width="1" />
</svg>
